<?xml version="1.0" encoding="utf-8"?>
<!-- Generator: Adobe Illustrator 20.1.0, SVG Export Plug-In . SVG Version: 6.00 Build 0)  -->
<svg version="1.1" id="Layer_1" xmlns="http://www.w3.org/2000/svg" xmlns:xlink="http://www.w3.org/1999/xlink" x="0px" y="0px"
	 viewBox="0 0 117.3 117.4" enable-background="new 0 0 117.3 117.4" xml:space="preserve">
<g>
	<path fill="#5D9F94" d="M116.3,0.9c-1-1-2.5-1.2-3.8-0.6L26.4,43.5c-1.2,0.6-1.9,1.8-1.8,3.2c0.1,1.4,1,2.5,2.2,2.9L59,59.7
		l10.2,30.7c0.4,1.3,1.6,2.2,2.9,2.2h0.2c1.3,0,2.4-0.7,3-1.8l41.6-86.2C117.6,3.4,117.2,1.9,116.3,0.9z M72.9,80.8l-8.2-24.6
		c-0.3-1-1.1-1.8-2.1-2.1l-26.2-8.3l70.5-35.3L72.9,80.8z"/>
	<path fill="#5D9F94" d="M54.8,87.7l-22.5,22.5c-1.4,1.4-1.4,3.6,0,5c0.7,0.7,1.6,1,2.5,1s1.8-0.3,2.5-1l22.5-22.5
		c1.4-1.4,1.4-3.6,0-5C58.4,86.3,56.1,86.3,54.8,87.7z"/>
	<path fill="#5D9F94" d="M4.8,86.2c0.9,0,1.8-0.3,2.5-1l22.5-22.5c1.4-1.4,1.4-3.6,0-5c-1.4-1.4-3.6-1.4-4.9,0L2.3,80.2
		c-1.4,1.4-1.4,3.6,0,5C3,85.8,3.9,86.2,4.8,86.2z"/>
	<path fill="#5D9F94" d="M46,71.5c-1.4-1.4-3.6-1.4-4.9,0l-40,40c-1.4,1.4-1.4,3.6,0,5c0.7,0.7,1.6,1,2.5,1s1.8-0.3,2.5-1l40-40
		C47.3,75,47.3,72.8,46,71.5z"/>
</g>
<g>
</g>
<g>
</g>
<g>
</g>
<g>
</g>
<g>
</g>
<g>
</g>
</svg>
