<?xml version="1.0" encoding="utf-8"?>
<!-- Generator: Adobe Illustrator 20.1.0, SVG Export Plug-In . SVG Version: 6.00 Build 0)  -->
<svg version="1.1" id="Layer_1" xmlns="http://www.w3.org/2000/svg" xmlns:xlink="http://www.w3.org/1999/xlink" x="0px" y="0px"
	 viewBox="0 0 25 25" enable-background="new 0 0 25 25" xml:space="preserve">
<g>
	<linearGradient id="SVGID_1_" gradientUnits="userSpaceOnUse" x1="12.5" y1="1.6042" x2="12.5" y2="22.7914">
		<stop  offset="0" style="stop-color:#516BB3"/>
		<stop  offset="1" style="stop-color:#3F529C"/>
	</linearGradient>
	<path fill-rule="evenodd" clip-rule="evenodd" fill="url(#SVGID_1_)" d="M5.5,0h14c3,0,5.5,2.5,5.5,5.5v14c0,3-2.5,5.5-5.5,5.5h-14
		c-3,0-5.5-2.5-5.5-5.5v-14C0,2.5,2.5,0,5.5,0L5.5,0z"/>
	<path fill-rule="evenodd" clip-rule="evenodd" fill="#F9F9FA" d="M13.7,9.7V8.5c0-0.6,0.4-0.7,0.7-0.7c0.3,0,1.7,0,1.7,0V5.2h-2.3
		c-2.6,0-3.2,1.9-3.2,3.1v1.4H9.1v1.8v1.2h1.5c0,3.4,0,7.5,0,7.5h3c0,0,0-4.2,0-7.5h2.2l0.1-1.2l0.2-1.8H13.7z"/>
</g>
<g>
</g>
<g>
</g>
<g>
</g>
<g>
</g>
<g>
</g>
<g>
</g>
</svg>
