<?xml version="1.0" encoding="utf-8"?>
<!-- Generator: Adobe Illustrator 20.1.0, SVG Export Plug-In . SVG Version: 6.00 Build 0)  -->
<svg version="1.1" id="Layer_1" xmlns="http://www.w3.org/2000/svg" xmlns:xlink="http://www.w3.org/1999/xlink" x="0px" y="0px"
	 viewBox="0 0 60 60" enable-background="new 0 0 60 60" xml:space="preserve">
<g>
	<g>
		<path fill="#4D4D4D" d="M30,60c16.5,0,30-13.4,30-30C60,13.4,46.6,0,30,0C13.5,0,0,13.4,0,30C0,46.6,13.5,60,30,60L30,60z M30,4.1
			c14.2,0,25.8,11.6,25.8,25.8c0,14.2-11.6,25.8-25.8,25.8S4.2,44.2,4.2,29.9C4.2,15.7,15.8,4.1,30,4.1L30,4.1z M30,4.1"/>
		<path fill="#4D4D4D" d="M25,43.2c-1.2,0-2.1,0.9-2.1,2.1c0,1.2,0.9,2.1,2.1,2.1h13.9c1.2,0,2.1-0.9,2.1-2.1c0-1.2-0.9-2.1-2.1-2.1
			h-4.9V24.5c0-1.2-0.9-2.1-2.1-2.1H25c-1.2,0-2.1,0.9-2.1,2.1c0,1.2,0.9,2.1,2.1,2.1h4.9v16.6H25z M25,43.2"/>
		<path fill="#4D4D4D" d="M32.5,15.5c0,1.9-1.5,3.4-3.4,3.4c-1.9,0-3.4-1.5-3.4-3.4c0-1.9,1.5-3.4,3.4-3.4
			C31,12.1,32.5,13.6,32.5,15.5L32.5,15.5z M32.5,15.5"/>
	</g>
</g>
<g>
</g>
<g>
</g>
<g>
</g>
<g>
</g>
<g>
</g>
<g>
</g>
</svg>
