<?xml version="1.0" encoding="utf-8"?>
<!-- Generator: Adobe Illustrator 20.1.0, SVG Export Plug-In . SVG Version: 6.00 Build 0)  -->
<svg version="1.1" id="Layer_1" xmlns="http://www.w3.org/2000/svg" xmlns:xlink="http://www.w3.org/1999/xlink" x="0px" y="0px"
	 viewBox="0 0 25 25" enable-background="new 0 0 25 25" xml:space="preserve">
<g>
	<linearGradient id="SVGID_1_" gradientUnits="userSpaceOnUse" x1="12.5" y1="0.4221" x2="12.5" y2="24.2894">
		<stop  offset="0" style="stop-color:#EBBA52"/>
		<stop  offset="0.3273" style="stop-color:#D71E3F"/>
		<stop  offset="0.6485" style="stop-color:#AA3995"/>
		<stop  offset="1" style="stop-color:#5754A4"/>
	</linearGradient>
	<path fill-rule="evenodd" clip-rule="evenodd" fill="url(#SVGID_1_)" d="M5.5,0h14c3,0,5.5,2.5,5.5,5.5v14c0,3-2.5,5.5-5.5,5.5h-14
		c-3,0-5.5-2.5-5.5-5.5v-14C0,2.5,2.5,0,5.5,0L5.5,0z"/>
	<g>
		<g>
			<path fill="#FFFFFF" d="M16.2,21H8.8C6.2,21,4,18.8,4,16.2V8.8C4,6.2,6.2,4,8.8,4h7.3C18.8,4,21,6.2,21,8.8v7.3
				C21,18.8,18.8,21,16.2,21z M8.8,5.5C7,5.5,5.5,7,5.5,8.8v7.3c0,1.9,1.5,3.4,3.4,3.4h7.3c1.9,0,3.4-1.5,3.4-3.4V8.8
				c0-1.9-1.5-3.4-3.4-3.4H8.8z"/>
		</g>
		<g>
			<path fill="#FFFFFF" d="M12.5,16.9c-2.4,0-4.4-2-4.4-4.4c0-2.4,2-4.4,4.4-4.4c2.4,0,4.4,2,4.4,4.4C16.9,14.9,14.9,16.9,12.5,16.9
				z M12.5,9.6c-1.6,0-2.9,1.3-2.9,2.9c0,1.6,1.3,2.9,2.9,2.9c1.6,0,2.9-1.3,2.9-2.9C15.4,10.9,14.1,9.6,12.5,9.6z"/>
		</g>
		<g>
			<circle fill="#FFFFFF" cx="17" cy="7.9" r="1"/>
		</g>
	</g>
</g>
<g>
</g>
<g>
</g>
<g>
</g>
<g>
</g>
<g>
</g>
<g>
</g>
</svg>
