<?xml version="1.0" encoding="utf-8"?>
<!-- Generator: Adobe Illustrator 20.1.0, SVG Export Plug-In . SVG Version: 6.00 Build 0)  -->
<svg version="1.1" id="Layer_1" xmlns="http://www.w3.org/2000/svg" xmlns:xlink="http://www.w3.org/1999/xlink" x="0px" y="0px"
	 viewBox="0 0 125 45" enable-background="new 0 0 125 45" xml:space="preserve">
<g>
	<g>
		<g>
			<circle fill="#D9634F" cx="7.7" cy="20" r="7.7"/>
			<circle fill="#D9634F" cx="32.3" cy="20" r="7.7"/>
			<path fill="#D9634F" d="M36.7,16.7c-1.8,0-3.3,1.5-3.3,3.3c0,0,0,0.1,0,0.1c-0.1,7.3-6,13.2-13.3,13.2S6.7,27.4,6.7,20.1
				c0,0,0-0.1,0-0.1c0-1.8-1.5-3.3-3.3-3.3C1.5,16.7,0,18.2,0,20c0,11,9,20,20,20s20-9,20-20C40,18.2,38.5,16.7,36.7,16.7z"/>
		</g>
		<circle fill="#D9634F" cx="20.4" cy="4.1" r="4.1"/>
	</g>
	<g>
		<g>
			<path fill="#FFFFFF" d="M53.9,16.1c-1,0-1.9,0.8-1.9,1.9v18.6c0,1,0.8,1.9,1.9,1.9s1.9-0.8,1.9-1.9V18
				C55.8,17,54.9,16.1,53.9,16.1z"/>
			<circle fill="#FFFFFF" cx="53.9" cy="12.4" r="1.9"/>
			<circle fill="#FFFFFF" cx="91.2" cy="36.6" r="1.9"/>
			<path fill="#FFFFFF" d="M123.1,16.1c-0.6,0-1.2,0.3-1.5,0.8c-0.9-0.5-2-0.8-3.1-0.8c-3.5,0-6.3,2.8-6.5,6.2h0v9.9h0
				c0.2,3.5,3,6.2,6.5,6.2c1,0,1.9-0.2,2.8-0.6v0.6c0,1.5-1.3,2.8-2.8,2.8c-1,0-1.9-0.6-2.4-1.4l0,0v0c-0.5-0.9-1.7-1.2-2.5-0.7
				c-0.9,0.5-1.2,1.7-0.7,2.5c0,0.1,0.1,0.1,0.1,0.2c1.2,1.9,3.2,3.1,5.5,3.1c3.6,0,6.5-2.9,6.5-6.5V18
				C125,17,124.2,16.1,123.1,16.1z M121.3,32c0,1.5-1.3,2.8-2.8,2.8s-2.8-1.3-2.8-2.8v-9.3c0-1.5,1.3-2.8,2.8-2.8s2.8,1.3,2.8,2.8
				V32z"/>
			<path fill="#FFFFFF" d="M64.8,25.4c-1.5,0-2.8-1.3-2.8-2.8c0-1.5,1.3-2.8,2.8-2.8c1,0,1.9,0.6,2.4,1.4c0.5,0.9,1.7,1.2,2.5,0.7
				c0.9-0.5,1.2-1.7,0.7-2.5c-1.1-1.9-3.2-3.3-5.6-3.3c-3.6,0-6.5,2.9-6.5,6.5c0,3.6,2.9,6.5,6.5,6.5c1.5,0,2.8,1.3,2.8,2.8
				c0,1.5-1.3,2.8-2.8,2.8c-1,0-1.9-0.6-2.4-1.4c-0.5-0.9-1.7-1.2-2.5-0.7c-0.9,0.5-1.2,1.7-0.7,2.5c1.1,1.9,3.2,3.3,5.6,3.3
				c3.6,0,6.5-2.9,6.5-6.5C71.3,28.4,68.4,25.4,64.8,25.4z"/>
			<path fill="#FFFFFF" d="M80.3,16.1c-1,0-1.9,0.2-2.8,0.6v-4.4c0-1-0.8-1.9-1.9-1.9c-1,0-1.9,0.8-1.9,1.9v24.2
				c0,1,0.8,1.9,1.9,1.9c1,0,1.9-0.8,1.9-1.9v-14c0-1.5,1.3-2.8,2.8-2.8c1.5,0,2.8,1.3,2.8,2.8v14c0,1,0.8,1.9,1.9,1.9
				c1,0,1.9-0.8,1.9-1.9v-14C86.8,19,83.9,16.1,80.3,16.1z"/>
			<path fill="#FFFFFF" d="M108.9,16.7c-0.7-0.7-1.9-0.7-2.6,0l-7.1,7.1V12.4c0-1-0.8-1.9-1.9-1.9c-1,0-1.9,0.8-1.9,1.9v24.2
				c0,1,0.8,1.9,1.9,1.9c1,0,1.9-0.8,1.9-1.9v-5.7l7.1,7.1c0.4,0.4,0.8,0.5,1.3,0.5s1-0.2,1.3-0.5c0.7-0.7,0.7-1.9,0-2.6l-8-8l8-8
				C109.7,18.6,109.7,17.4,108.9,16.7z"/>
		</g>
	</g>
</g>
<g>
</g>
<g>
</g>
<g>
</g>
<g>
</g>
<g>
</g>
<g>
</g>
</svg>
