<?xml version="1.0" encoding="utf-8"?>
<!-- Generator: Adobe Illustrator 20.1.0, SVG Export Plug-In . SVG Version: 6.00 Build 0)  -->
<svg version="1.1" id="Layer_1" xmlns="http://www.w3.org/2000/svg" xmlns:xlink="http://www.w3.org/1999/xlink" x="0px" y="0px"
	 viewBox="0 0 15 10" enable-background="new 0 0 15 10" xml:space="preserve">
<path fill="#FFFFFF" d="M15,0.8c0-0.1,0-0.2-0.1-0.3c0,0,0,0,0,0c0,0,0,0,0-0.1c0-0.1-0.1-0.1-0.1-0.2c0,0,0,0-0.1-0.1
	c-0.1,0-0.1-0.1-0.2-0.1c0,0-0.1,0-0.1,0C14.3,0,14.2,0,14.1,0H0.9C0.8,0,0.7,0,0.6,0.1c0,0-0.1,0-0.1,0c-0.1,0-0.1,0.1-0.2,0.1
	c0,0,0,0-0.1,0.1C0.2,0.3,0.1,0.4,0.1,0.5c0,0,0,0,0,0.1c0,0,0,0,0,0C0,0.6,0,0.7,0,0.8c0,0,0,0,0,0v8.3C0,9.6,0.4,10,0.9,10h13.2
	c0.5,0,0.9-0.4,0.9-0.8L15,0.8C15,0.8,15,0.8,15,0.8z M11.8,1.7L7.5,5.3L3.2,1.7H11.8z M1.8,8.3V2.7L6.9,7c0.2,0.1,0.4,0.2,0.6,0.2
	S7.9,7.2,8.1,7l5.1-4.3v5.6H1.8z"/>
<g>
</g>
<g>
</g>
<g>
</g>
<g>
</g>
<g>
</g>
<g>
</g>
</svg>
