<?xml version="1.0" encoding="utf-8"?>
<!-- Generator: Adobe Illustrator 20.1.0, SVG Export Plug-In . SVG Version: 6.00 Build 0)  -->
<svg version="1.1" id="Layer_1" xmlns="http://www.w3.org/2000/svg" xmlns:xlink="http://www.w3.org/1999/xlink" x="0px" y="0px"
	 viewBox="0 0 60 60" enable-background="new 0 0 60 60" xml:space="preserve">
<g>
	<g>
		<path fill="#FFFFFF" d="M2.2,27.1H25c1.2,0,2.1-0.9,2.1-2.1V2.1C27.1,0.9,26.2,0,25,0H2.2C1,0,0.1,0.9,0.1,2.1V25
			C0.1,26.2,1,27.1,2.2,27.1L2.2,27.1z M4.2,4.2h18.6v18.6H4.2V4.2z M4.2,4.2"/>
		<path fill="#FFFFFF" d="M2.2,39.3c-1.2,0-2.1,0.9-2.1,2.1c0,1.2,0.9,2.1,2.1,2.1l55.7,0.1c1.2,0,2.1-0.9,2.1-2.1
			c0-1.2-0.9-2.1-2.1-2.1L2.2,39.3z M2.2,39.3"/>
		<g>
			<path fill="#FFFFFF" d="M35.1,22.8c-1.2,0-2.1,0.9-2.1,2.1c0,1.2,0.9,2.1,2.1,2.1l22.8,0.1c1.2,0,2.1-0.9,2.1-2.1
				c0-1.2-0.9-2.1-2.1-2.1L35.1,22.8z M35.1,22.8"/>
			<path fill="#FFFFFF" d="M35.1,0C33.9,0,33,0.9,33,2.1c0,1.2,0.9,2.1,2.1,2.1l22.8,0.1c1.2,0,2.1-0.9,2.1-2.1
				c0-1.2-0.9-2.1-2.1-2.1L35.1,0z M35.1,0"/>
			<path fill="#FFFFFF" d="M35.1,11.4c-1.2,0-2.1,0.9-2.1,2.1c0,1.2,0.9,2.1,2.1,2.1l22.8,0.1c1.2,0,2.1-0.9,2.1-2.1
				c0-1.2-0.9-2.1-2.1-2.1L35.1,11.4z M35.1,11.4"/>
		</g>
		<path fill="#FFFFFF" d="M2.1,59.9L57.8,60c1.2,0,2.1-0.9,2.1-2.1c0-1.2-0.9-2.1-2.1-2.1L2.1,55.7c-1.2,0-2.1,0.9-2.1,2.1
			C0,59,1,59.9,2.1,59.9L2.1,59.9z M2.1,59.9"/>
	</g>
</g>
<g>
</g>
<g>
</g>
<g>
</g>
<g>
</g>
<g>
</g>
<g>
</g>
</svg>
