<?xml version="1.0" encoding="utf-8"?>
<!-- Generator: Adobe Illustrator 20.1.0, SVG Export Plug-In . SVG Version: 6.00 Build 0)  -->
<svg version="1.1" id="Layer_1" xmlns="http://www.w3.org/2000/svg" xmlns:xlink="http://www.w3.org/1999/xlink" x="0px" y="0px"
	 viewBox="0 0 25 25" enable-background="new 0 0 25 25" xml:space="preserve">
<g>
	<path fill-rule="evenodd" clip-rule="evenodd" fill="#E59924" d="M5.5,0h14c3,0,5.5,2.5,5.5,5.5v14c0,3-2.5,5.5-5.5,5.5h-14
		c-3,0-5.5-2.5-5.5-5.5v-14C0,2.5,2.5,0,5.5,0L5.5,0z"/>
	<path fill="#FFFFFF" d="M17.1,13c-0.2-0.5-0.9-0.8-1.7-0.2c-1.1,0.9-2.9,0.9-2.9,0.9s-1.8,0-3-0.9c-0.8-0.7-1.5-0.3-1.7,0.2
		c-0.4,0.8,0.1,1.2,1.1,1.8c0.9,0.6,2.1,0.7,2.8,0.8l-0.6,0.6c-0.9,0.9-1.8,1.8-2.4,2.4c-0.4,0.4-0.4,1,0,1.3l0.1,0.1
		c0.2,0.2,0.4,0.3,0.7,0.3c0.2,0,0.5-0.1,0.7-0.3l2.4-2.4c0.9,0.9,1.8,1.8,2.4,2.4c0.4,0.4,1,0.4,1.3,0l0.1-0.1c0.4-0.4,0.4-1,0-1.3
		L14,16.4l-0.7-0.6c0.8-0.1,1.9-0.3,2.8-0.9c0.8-0.5,1.2-0.8,1.2-1.3v0C17.3,13.4,17.2,13.2,17.1,13L17.1,13z M12.4,4.5L12.4,4.5
		c-2.2,0-4,1.9-4,4.1c0,2.2,1.8,4,4.1,4c2.2,0,4-1.8,4-4.1C16.5,6.3,14.6,4.5,12.4,4.5L12.4,4.5z M12.4,6.6c1.1,0,2,0.9,2,2
		c0,1.1-0.9,2-2,2c-1.1,0-2-0.9-2-2C10.5,7.5,11.3,6.6,12.4,6.6L12.4,6.6z"/>
</g>
<g>
</g>
<g>
</g>
<g>
</g>
<g>
</g>
<g>
</g>
<g>
</g>
</svg>
