<?xml version="1.0" encoding="utf-8"?>
<!-- Generator: Adobe Illustrator 20.1.0, SVG Export Plug-In . SVG Version: 6.00 Build 0)  -->
<svg version="1.1" id="Layer_1" xmlns="http://www.w3.org/2000/svg" xmlns:xlink="http://www.w3.org/1999/xlink" x="0px" y="0px"
	 viewBox="0 0 60 60" enable-background="new 0 0 60 60" xml:space="preserve">
<g>
	<path fill="#FFFFFF" d="M30,32.3c8.9,0,16.2-7.2,16.2-16.2C46.2,7.2,38.9,0,30,0c-8.9,0-16.2,7.2-16.2,16.1S21.1,32.3,30,32.3
		L30,32.3z M30,4.2c6.5,0,11.9,5.4,11.9,11.9S36.5,28,30,28c-6.5,0-11.9-5.4-11.9-11.9S23.5,4.2,30,4.2L30,4.2z M30,4.2"/>
	<path fill="#FFFFFF" d="M2.1,60h55.8c1.2,0,2.1-1,2.1-2.2c0-11.5-9-20.9-20.1-20.9H20.1C9.1,36.9,0,46.3,0,57.8C0,59,0.9,60,2.1,60
		L2.1,60z M20.1,41.3h19.7c8.1,0,14.7,6.2,15.8,14.3H4.4C5.4,47.6,12.1,41.3,20.1,41.3L20.1,41.3z M20.1,41.3"/>
</g>
<g>
</g>
<g>
</g>
<g>
</g>
<g>
</g>
<g>
</g>
<g>
</g>
</svg>
