<?xml version="1.0" standalone="no"?>
<!DOCTYPE svg PUBLIC "-//W3C//DTD SVG 20010904//EN"
 "http://www.w3.org/TR/2001/REC-SVG-20010904/DTD/svg10.dtd">
<svg version="1.0" xmlns="http://www.w3.org/2000/svg"
 width="700.000000pt" height="700.000000pt" viewBox="0 0 700.000000 700.000000"
 preserveAspectRatio="xMidYMid meet">
<metadata>
Created by potrace 1.11, written by Peter Selinger 2001-2013
</metadata>
<g transform="translate(0.000000,700.000000) scale(0.100000,-0.100000)"
fill="#000000" stroke="none">
<path d="M3430 6993 c-278 -48 -482 -220 -570 -482 -59 -176 -44 -366 43 -536
91 -177 256 -310 452 -363 63 -17 228 -22 300 -10 216 37 427 201 515 401 49
111 76 300 55 397 -3 14 -8 41 -11 60 -27 140 -150 321 -280 411 -58 39 -174
93 -239 109 -50 13 -219 21 -265 13z"/>
<path d="M1213 4868 c-205 -16 -427 -91 -593 -200 -104 -68 -135 -93 -216
-173 -217 -214 -338 -448 -389 -754 -13 -80 -14 -382 -1 -506 2 -22 7 -67 11
-100 3 -33 8 -72 10 -87 3 -16 7 -43 10 -60 3 -18 10 -55 15 -83 6 -27 12 -59
14 -70 19 -100 104 -402 126 -450 5 -11 27 -68 50 -126 34 -89 166 -366 200
-419 5 -8 37 -60 71 -115 136 -222 292 -418 484 -610 72 -71 159 -155 195
-185 36 -30 67 -57 70 -60 14 -16 246 -184 320 -232 352 -227 814 -412 1205
-482 17 -3 39 -8 50 -10 30 -6 93 -15 150 -22 28 -3 59 -8 69 -10 125 -24 590
-23 776 1 14 2 48 6 77 9 28 4 100 15 160 26 157 29 166 31 173 35 4 2 20 6
36 9 16 3 61 15 99 26 39 11 75 22 80 23 35 10 185 61 210 72 17 7 60 25 97
39 63 23 301 139 378 183 456 262 837 608 1136 1032 131 188 286 470 365 669
5 12 13 32 19 45 25 59 78 221 115 352 24 82 66 280 79 365 13 88 16 108 21
153 20 181 26 431 12 549 -49 437 -326 831 -727 1033 -134 67 -249 102 -435
131 -51 8 -279 7 -325 -1 -246 -44 -390 -98 -564 -212 -104 -69 -266 -218
-313 -288 -15 -22 -32 -44 -38 -50 -14 -13 -75 -115 -109 -182 -51 -103 -101
-258 -121 -378 -16 -99 -14 -329 5 -434 75 -415 323 -755 692 -951 94 -50 267
-112 343 -124 22 -4 40 -8 42 -9 8 -8 -173 -225 -261 -313 -268 -269 -572
-456 -926 -571 -78 -25 -209 -58 -270 -68 -19 -3 -46 -8 -60 -10 -14 -3 -36
-7 -50 -10 -129 -25 -477 -25 -635 -1 -145 22 -236 40 -290 56 -16 5 -55 17
-85 26 -185 56 -499 207 -615 296 -5 5 -46 35 -90 68 -161 121 -315 274 -448
448 l-58 76 88 23 c144 36 264 88 412 178 103 63 250 203 340 324 79 107 189
326 206 411 2 8 8 35 15 60 7 25 14 59 16 75 2 17 8 59 13 95 22 161 -6 420
-64 580 -116 324 -348 591 -643 743 -107 56 -243 106 -332 122 -152 28 -259
34 -397 23z"/>
</g>
</svg>
