<?xml version="1.0" encoding="utf-8"?>
<!-- Generator: Adobe Illustrator 20.1.0, SVG Export Plug-In . SVG Version: 6.00 Build 0)  -->
<svg version="1.1" id="Layer_1" xmlns="http://www.w3.org/2000/svg" xmlns:xlink="http://www.w3.org/1999/xlink" x="0px" y="0px"
	 viewBox="0 0 130.4 79.7" enable-background="new 0 0 130.4 79.7" xml:space="preserve">
<g>
	<path fill="#5D9F94" d="M105.8,37.3c8.2,0,14.9-6.7,14.9-14.9c0-8.2-6.7-14.9-14.9-14.9c-8.2,0-14.9,6.7-14.9,14.9
		C90.9,30.6,97.6,37.3,105.8,37.3L105.8,37.3z M105.8,13.4c4.9,0,8.9,4,8.9,8.9c0,4.9-4,8.9-8.9,8.9c-4.9,0-8.9-4-8.9-8.9
		C96.8,17.5,100.8,13.4,105.8,13.4L105.8,13.4z M105.8,13.4"/>
	<path fill="#5D9F94" d="M105.8,43.2c-4,0-8.1,1-11.6,2.9c-1.4,0.8-2,2.6-1.2,4c0.8,1.5,2.6,2,4,1.2c2.7-1.4,5.7-2.2,8.8-2.2
		c9.3,0,17,6.8,18.4,15.7h-18.4c-1.6,0-3,1.3-3,3c0,1.6,1.3,3,3,3h21.6c1.6,0,3-1.3,3-3C130.4,54.3,119.3,43.2,105.8,43.2
		L105.8,43.2z M105.8,43.2"/>
	<path fill="#5D9F94" d="M24.9,64.9H6.2c1.4-8.9,9.1-15.7,18.4-15.7c3.1,0,6.1,0.8,8.8,2.2c1.5,0.8,3.3,0.2,4-1.2
		c0.8-1.5,0.2-3.3-1.2-4c-3.5-1.9-7.6-2.9-11.6-2.9C11,43.2,0,54.3,0,67.8c0,1.6,1.3,3,3,3h21.9c1.6,0,3-1.3,3-3
		C27.8,66.2,26.5,64.9,24.9,64.9L24.9,64.9z M24.9,64.9"/>
	<path fill="#5D9F94" d="M24.6,37.3c8.2,0,14.9-6.7,14.9-14.9c0-8.2-6.7-14.9-14.9-14.9c-8.2,0-14.9,6.7-14.9,14.9
		C9.7,30.6,16.4,37.3,24.6,37.3L24.6,37.3z M24.6,13.4c4.9,0,8.9,4,8.9,8.9c0,4.9-4,8.9-8.9,8.9c-4.9,0-8.9-4-8.9-8.9
		C15.6,17.5,19.7,13.4,24.6,13.4L24.6,13.4z M24.6,13.4"/>
	<path fill="#5D9F94" d="M65.2,38.4c10.6,0,19.2-8.6,19.2-19.2C84.4,8.6,75.8,0,65.2,0C54.6,0,46,8.6,46,19.2
		C46,29.8,54.6,38.4,65.2,38.4L65.2,38.4z M65.2,6c7.3,0,13.2,5.9,13.2,13.2c0,7.3-5.9,13.2-13.2,13.2c-7.3,0-13.2-5.9-13.2-13.2
		C52,11.9,57.9,6,65.2,6L65.2,6z M65.2,6"/>
	<path fill="#5D9F94" d="M65.2,44.3c-17.8,0-32.4,14.5-32.4,32.4c0,1.6,1.3,3,3,3h58.7c1.6,0,3-1.3,3-3C97.5,58.8,83,44.3,65.2,44.3
		L65.2,44.3z M39,73.7c1.5-13.2,12.7-23.4,26.2-23.4s24.7,10.3,26.2,23.4H39z M39,73.7"/>
</g>
<g>
</g>
<g>
</g>
<g>
</g>
<g>
</g>
<g>
</g>
<g>
</g>
</svg>
