<?xml version="1.0" encoding="utf-8"?>
<!-- Generator: Adobe Illustrator 20.1.0, SVG Export Plug-In . SVG Version: 6.00 Build 0)  -->
<svg version="1.1" id="Layer_1" xmlns="http://www.w3.org/2000/svg" xmlns:xlink="http://www.w3.org/1999/xlink" x="0px" y="0px"
	 viewBox="0 0 20 20" enable-background="new 0 0 20 20" xml:space="preserve">
<g>
	<circle fill="#010101" cx="10" cy="10" r="10"/>
	<g>
		<path fill="#FFFFFF" d="M9.4,14.5L6.7,7.2C6.6,6.8,6.4,6.6,6.3,6.4S5.9,6.2,5.6,6.1V5.5h4.2v0.6c-0.3,0-0.6,0.1-0.7,0.2
			S8.9,6.5,8.9,6.7c0,0,0,0.1,0,0.2S8.9,7,9,7.1l1.8,5l1.6-4.7c0,0,0-0.1,0-0.1c0.1-0.3,0.1-0.4,0.1-0.5c0-0.2-0.1-0.3-0.2-0.4
			S12,6.2,11.6,6.1V5.5h2.7v0.6c-0.3,0.1-0.5,0.2-0.7,0.3s-0.3,0.5-0.5,0.8l-2.6,7.2H9.4z"/>
	</g>
</g>
<g>
</g>
<g>
</g>
<g>
</g>
<g>
</g>
<g>
</g>
<g>
</g>
</svg>
